<?xml version="1.0" encoding="UTF-8"?>
<svg width="388" height="540" version="1.1" viewBox="0 0 102.66 142.88" xmlns="http://www.w3.org/2000/svg" xmlns:xlink="http://www.w3.org/1999/xlink">
 <defs>
  <filter id="filter22014" x="-.10367" y="-.036283" width="1.2073" height="1.0726" color-interpolation-filters="sRGB">
   <feGaussianBlur result="fbSourceGraphic" stdDeviation="2 2"/>
   <feColorMatrix in="fbSourceGraphic" result="fbSourceGraphicAlpha" values="0 0 0 -1 0 0 0 0 -1 0 0 0 0 -1 0 0 0 0 1 0"/>
   <feColorMatrix in="fbSourceGraphic" values="0.21 0.72 0.072 0 0 0.21 0.72 0.072 0 0 0.21 0.72 0.072 0 0 0 0 0 1 0 "/>
  </filter>
  <filter id="filter22018" x="-.10367" y="-.036283" width="1.2073" height="1.0726" color-interpolation-filters="sRGB">
   <feGaussianBlur result="fbSourceGraphic" stdDeviation="2 2"/>
   <feColorMatrix in="fbSourceGraphic" result="fbSourceGraphicAlpha" values="0 0 0 -1 0 0 0 0 -1 0 0 0 0 -1 0 0 0 0 1 0"/>
   <feColorMatrix in="fbSourceGraphic" values="0.21 0.72 0.072 0 0 0.21 0.72 0.072 0 0 0.21 0.72 0.072 0 0 0 0 0 1 0 "/>
  </filter>
 </defs>
 <g transform="translate(-28.758 -.99143)">
  <use transform="translate(1.4022 1.1641)" width="100%" height="100%" fill="#1a1a1a" filter="url(#filter22014)" xlink:href="#use4138"/>
  <use transform="translate(1.4022 1.1641)" width="100%" height="100%" fill="#1a1a1a" filter="url(#filter22018)" xlink:href="#path846"/>
  <use id="use4138" transform="matrix(-1 0 0 1 160.17 1.2113e-8)" width="100%" height="100%" style="paint-order:stroke markers fill" xlink:href="#path846"/>
  <path id="path846" d="m80.352 6.2831c-26.017-2e-6 -46.302 20.006-46.302 47.044 0 32.989 31.347 35.495 45.773 85.248h0.52917z" fill="#cb312a" fill-rule="evenodd" style="paint-order:stroke markers fill"/>
  <path id="path5763" d="m99.298 34.116-19.211 19.211" fill="none" stroke="#fff" stroke-linecap="round" stroke-width="10.965"/>
  <use transform="matrix(-1 0 0 1 160.17 -1.2113e-8)" width="100%" height="100%" xlink:href="#path5763"/>
  <use transform="rotate(180 80.087 53.327)" width="100%" height="100%" xlink:href="#path5763"/>
  <use transform="matrix(1 0 0 -1 2.6373e-7 106.65)" width="100%" height="100%" xlink:href="#path5763"/>
 </g>
</svg>
