<?xml version="1.0" encoding="UTF-8" standalone="no"?>
<svg
   width="35"
   height="35"
   viewBox="0 0 35 35"
   version="1.1"
   id="svg4"
   sodipodi:docname="device-location-searching.svg"
   inkscape:version="1.1.1 (3bf5ae0d25, 2021-09-20)"
   xmlns:inkscape="http://www.inkscape.org/namespaces/inkscape"
   xmlns:sodipodi="http://sodipodi.sourceforge.net/DTD/sodipodi-0.dtd"
   xmlns="http://www.w3.org/2000/svg"
   xmlns:svg="http://www.w3.org/2000/svg">
  <defs
     id="defs8" />
  <sodipodi:namedview
     id="namedview6"
     pagecolor="#ffffff"
     bordercolor="#666666"
     borderopacity="1.0"
     inkscape:pageshadow="2"
     inkscape:pageopacity="0.0"
     inkscape:pagecheckerboard="true"
     showgrid="false"
     inkscape:snap-bbox="true"
     inkscape:snap-bbox-midpoints="true"
     inkscape:snap-bbox-edge-midpoints="true"
     inkscape:snap-midpoints="true"
     inkscape:snap-center="false"
     inkscape:snap-object-midpoints="true"
     inkscape:object-paths="true"
     inkscape:object-nodes="true"
     inkscape:snap-smooth-nodes="true"
     inkscape:snap-nodes="true"
     inkscape:zoom="15.538083"
     inkscape:cx="17.891525"
     inkscape:cy="15.285025"
     inkscape:window-width="1879"
     inkscape:window-height="1051"
     inkscape:window-x="42"
     inkscape:window-y="0"
     inkscape:window-maximized="1"
     inkscape:current-layer="svg4"
     inkscape:snap-intersection-paths="true"
     inkscape:bbox-nodes="true"
     inkscape:snap-global="true"
     fit-margin-top="2"
     fit-margin-bottom="2"
     fit-margin-right="2"
     fit-margin-left="2" />
  <path
     fill="#ffffff"
     d="M 26.44,16.5 C 25.98,12.33 22.67,9.02 18.5,8.56 V 6.5000001 h -2 V 8.56 C 12.33,9.02 9.02,12.33 8.56,16.5 H 6.5 v 2 h 2.06 c 0.46,4.17 3.77,7.48 7.94,7.94 v 2.06 h 2 v -2.06 c 4.17,-0.46 7.48,-3.77 7.94,-7.94 h 2.06 v -2 z m -8.94,8 c -3.87,0 -7,-3.13 -7,-7 0,-3.87 3.13,-7 7,-7 3.87,0 7,3.13 7,7 0,3.87 -3.13,7 -7,7 z"
     id="path2" />
  <path
     style="fill:none;fill-opacity:0.707089;fill-rule:evenodd;stroke:#ffffff;stroke-width:2;stroke-miterlimit:4;stroke-dasharray:none;stroke-opacity:0.886275"
     d="M 27.253906,7.7405383 C 24.534246,5.0675275 20.912154,3.4003907 17.5,3.4003907"
     id="path6859"
     sodipodi:nodetypes="cc"
     inkscape:transform-center-x="-3.902882"
     inkscape:transform-center-y="-6.056435" />
</svg>
